<svg width="120" height="100" xmlns="http://www.w3.org/2000/svg">

 <g>
  <title>background</title>
  <rect fill="none" id="canvas_background" height="102" width="122" y="-1" x="-1"/>
 </g>
 <g>
  <title>Layer 1</title>
  <path id="svg_6" fill="#CDAF31" d="m92.253548,51.609256l4.6,-17.2c2.1,-8 -2.6,-16.2 -10.6,-18.3l-17.2,-4.6c-7.2,-1.9 -14.9,-0.9 -21.3,2.8l-36.3,20.7c0.4,23.2 13.6,43.4 32.8,53.7l34.9,-20.1c6.5,-3.7 11.2,-9.8 13.1,-17zm-15.9,-21.6c0,-3.9 3.1,-7 7,-7c3.9,0 7,3.1 7,7c0,3.9 -3.1,7 -7,7c-3.9,-0.1 -7,-3.2 -7,-7z"/>
  <path id="svg_8" fill="#2D2E2D" d="m83.057252,39.394441c4.5,0 8.2,-3.7 8.2,-8.2s-3.7,-8.2 -8.2,-8.2s-8.2,3.7 -8.2,8.2s3.6,8.2 8.2,8.2zm0,-14c3.2,0 5.8,2.6 5.8,5.7s-2.6,5.7 -5.8,5.7s-5.8,-2.6 -5.8,-5.7s2.6,-5.7 5.8,-5.7z"/>
  <path id="svg_9" fill="#2D2E2D" d="m93.157252,53.094441l4.6,-17.2c2.3,-8.6 -2.9,-17.5 -11.5,-19.9l-17.2,-4.6c-7.4,-2 -15.6,-0.9 -22.3,2.9l-35.6,20.5c0,0.1 0,0.3 0,0.4c0,0.8 0,1.6 0.1,2.5l36.8,-21.2c4.1,-2.3 8.7,-3.6 13.4,-3.6c2.4,0 4.7,0.3 7,0.9l17.2,4.6c7.3,2 11.7,9.5 9.7,16.8l-4.6,17.2c-1.8,6.8 -6.4,12.7 -12.5,16.2l-35.6,20.6c0.9,0.5 1.7,0.9 2.6,1.4l34.2,-19.7c6.8,-3.9 11.7,-10.3 13.7,-17.8z"/>
  <path id="svg_13" fill="#FBFBF9" d="m37.657252,81.694441c1.8,-2.2 2.6,-4.9 2.3,-7.7c-0.6,-5.7 -5.7,-10 -11.6,-9.3c-2.8,0.3 -5.3,1.7 -7.1,3.9c-0.1,0.1 -0.1,0.2 -0.2,0.3c1,1.6 2.1,3.1 3.2,4.5c0.2,-0.6 0.5,-1.1 0.9,-1.6c0.9,-1.1 2.3,-1.9 3.7,-2c0.2,0 0.4,0 0.6,0c2.8,0 5.2,2.1 5.5,4.9c0.2,1.5 -0.3,2.9 -1.2,4c-0.8,1 -1.8,1.6 -3,1.9c1.3,1.3 2.8,2.5 4.2,3.6c1,-0.8 1.9,-1.6 2.7,-2.5z"/>
  <path id="svg_15" fill="#FBFBF9" d="m38.457252,32.794441c-2.8,0.3 -5.3,1.7 -7.1,3.9c-1.8,2.2 -2.6,4.9 -2.3,7.7c0.6,5.4 5.1,9.4 10.5,9.4c0.4,0 0.8,0 1.1,-0.1c2.8,-0.3 5.3,-1.7 7.1,-3.9c1.8,-2.2 2.6,-4.9 2.3,-7.7c-0.6,-5.7 -5.8,-10 -11.6,-9.3zm5.4,13.9c-0.9,1.2 -2.3,1.9 -3.7,2c-3.1,0.3 -5.8,-1.9 -6.1,-4.9c-0.2,-1.5 0.3,-2.9 1.2,-4c0.9,-1.2 2.3,-1.9 3.7,-2c0.2,0 0.4,0 0.6,0c2.8,0 5.2,2.1 5.5,4.9c0.2,1.4 -0.3,2.8 -1.2,4z"/>
  <path id="svg_17" fill="#FBFBF9" d="m58.057252,64.394441c1.3,0 2.3,-0.9 2.5,-2.2c0.2,-1.4 -0.8,-2.6 -2.2,-2.8l-44.2,-5.1c0.6,1.8 1.2,3.5 2,5.3l41.6,4.8c0.1,0 0.2,0 0.3,0z"/>
  <path id="svg_20" fill="#C35D55" d="m109.857252,32.994441l-25.1,-5.7c-2.3,-0.5 -4.5,1 -5,3.2s1,4.5 3.2,5l25.1,5.7c2.3,0.5 4.5,-1 5,-3.2l0,0c0.5,-2.3 -1,-4.5 -3.2,-5z"/>
  <path id="svg_22" fill="#2D2E2D" d="m110.057252,31.794441l-25.1,-5.7c-0.4,-0.1 -0.8,-0.1 -1.1,-0.1c-2.6,0 -4.8,1.8 -5.3,4.3c-0.3,1.4 0,2.9 0.8,4.1c0.8,1.2 2,2.1 3.4,2.4l25.1,5.7c0.4,0.1 0.8,0.1 1.1,0.1c2.6,0 4.8,-1.8 5.3,-4.3c0.3,-1.4 0,-2.9 -0.8,-4.1c-0.7,-1.3 -1.9,-2.1 -3.4,-2.4zm1.8,5.9c-0.3,1.4 -1.5,2.3 -2.9,2.3c-0.2,0 -0.4,0 -0.6,-0.1l-25.1,-5.7c-0.8,-0.2 -1.4,-0.6 -1.9,-1.3c-0.4,-0.7 -0.6,-1.4 -0.4,-2.2c0.3,-1.4 1.5,-2.3 2.9,-2.3c0.2,0 0.4,0 0.6,0.1l25.1,5.7c0.8,0.2 1.4,0.6 1.9,1.3c0.4,0.7 0.5,1.5 0.4,2.2z"/>
 </g>
</svg>